<svg width="332" height="332" viewBox="0 0 332 332" fill="none" xmlns="http://www.w3.org/2000/svg">
<circle cx="166" cy="166" r="166" fill="#2C2F77"/>
<path d="M98.8935 152C98.8935 152 87.8831 200.602 98.8935 213.857C109.904 227.112 136.552 224.934 156.698 213.857C176.845 202.78 158.218 156.365 156.698 156.418" stroke="white" stroke-width="14"/>
<path d="M113 103V128M143 103V128" stroke="white" stroke-width="7"/>
<path d="M246.37 140.958C248.556 140.636 250.067 138.604 249.746 136.419C249.425 134.233 247.393 132.721 245.207 133.042L246.37 140.958ZM245.789 137C245.207 133.042 245.206 133.043 245.204 133.043C245.204 133.043 245.202 133.043 245.2 133.044C245.197 133.044 245.194 133.044 245.19 133.045C245.181 133.046 245.171 133.048 245.158 133.05C245.132 133.054 245.097 133.059 245.052 133.066C244.964 133.08 244.839 133.101 244.68 133.127C244.364 133.181 243.912 133.262 243.346 133.373C242.216 133.595 240.624 133.939 238.739 134.437C234.992 135.426 229.981 137.045 225.111 139.565C220.275 142.066 215.298 145.599 211.954 150.549C208.513 155.642 206.972 161.997 208.735 169.573L216.526 167.76C215.275 162.382 216.371 158.301 218.583 155.027C220.89 151.612 224.58 148.847 228.787 146.67C232.96 144.511 237.369 143.072 240.781 142.172C242.475 141.725 243.898 141.417 244.887 141.223C245.381 141.126 245.766 141.058 246.02 141.015C246.147 140.993 246.241 140.978 246.301 140.968C246.33 140.964 246.351 140.96 246.363 140.959C246.369 140.958 246.372 140.957 246.374 140.957C246.374 140.957 246.374 140.957 246.374 140.957C246.373 140.957 246.372 140.957 246.372 140.957C246.371 140.957 246.37 140.958 245.789 137ZM208.735 169.573C210.466 177.012 214.087 181.573 218.733 184.339C223.097 186.937 228.105 187.748 231.885 188.435C236.118 189.206 238.595 189.813 240.111 191.124C241.189 192.056 242.493 194.047 241.816 199.871L249.762 200.796C250.592 193.665 249.258 188.459 245.344 185.073C241.867 182.066 236.996 181.234 233.317 180.565C229.184 179.813 225.714 179.185 222.825 177.464C220.217 175.912 217.81 173.276 216.526 167.76L208.735 169.573ZM241.816 199.871C240.506 211.129 233.347 218.121 226.044 222.439C222.399 224.594 218.818 226.015 216.138 226.896C214.804 227.334 213.708 227.634 212.959 227.822C212.585 227.916 212.299 227.981 212.114 228.022C212.022 228.042 211.955 228.056 211.916 228.064C211.896 228.068 211.883 228.07 211.877 228.072C211.874 228.072 211.873 228.072 211.873 228.072C211.873 228.072 211.874 228.072 211.875 228.072C211.876 228.072 211.877 228.072 211.877 228.072C211.879 228.071 211.88 228.071 212.631 232C213.381 235.929 213.383 235.929 213.384 235.928C213.385 235.928 213.387 235.928 213.389 235.928C213.392 235.927 213.395 235.926 213.399 235.925C213.407 235.924 213.417 235.922 213.428 235.92C213.451 235.915 213.481 235.909 213.519 235.902C213.593 235.886 213.696 235.865 213.825 235.836C214.084 235.78 214.448 235.696 214.904 235.582C215.816 235.354 217.098 235.001 218.637 234.495C221.704 233.487 225.846 231.849 230.115 229.326C238.637 224.288 248.057 215.447 249.762 200.796L241.816 199.871Z" fill="#12FEFE"/>
</svg>
