<svg width="1420" height="778" viewBox="0 0 1420 778" fill="none" xmlns="http://www.w3.org/2000/svg">
<path d="M670.188 253.125C672.229 253.125 673.833 253.417 675 254C676.167 254.542 677.042 255.292 677.625 256.25C678.25 257.208 678.646 258.333 678.812 259.625C678.979 260.875 679.062 262.208 679.062 263.625V300.625C679.062 302.083 678.979 303.438 678.812 304.688C678.646 305.938 678.271 307.042 677.688 308C677.104 308.917 676.229 309.646 675.062 310.188C673.896 310.729 672.312 311 670.312 311C668.354 311 666.792 310.75 665.625 310.25C664.458 309.708 663.562 309 662.938 308.125C662.312 307.25 661.896 306.208 661.688 305C661.521 303.792 661.438 302.5 661.438 301.125V290H640.062C637.479 290 635.354 289.792 633.688 289.375C632.021 288.958 630.688 288.417 629.688 287.75C628.729 287.042 628.042 286.229 627.625 285.312C627.25 284.396 627.062 283.458 627.062 282.5C627.062 282 627.104 281.5 627.188 281C627.312 280.5 627.438 280 627.562 279.5L640.188 235.625C640.604 234.083 641 232.583 641.375 231.125C641.792 229.667 642.333 228.375 643 227.25C643.708 226.125 644.667 225.229 645.875 224.562C647.083 223.854 648.729 223.5 650.812 223.5C652.312 223.5 653.542 223.708 654.5 224.125C655.5 224.542 656.292 225.104 656.875 225.812C657.458 226.479 657.854 227.271 658.062 228.188C658.312 229.062 658.438 230 658.438 231C658.438 232 658.354 233.021 658.188 234.062C658.021 235.062 657.812 236 657.562 236.875C657.354 237.75 657.125 238.542 656.875 239.25C656.667 239.917 656.521 240.417 656.438 240.75C656.438 240.75 656.312 241.208 656.062 242.125C655.812 243 655.479 244.167 655.062 245.625C654.646 247.042 654.188 248.688 653.688 250.562C653.188 252.396 652.667 254.271 652.125 256.188C650.833 260.688 649.396 265.792 647.812 271.5L648.312 272H661.438V263.5C661.438 262.083 661.521 260.75 661.688 259.5C661.854 258.25 662.229 257.167 662.812 256.25C663.396 255.292 664.271 254.542 665.438 254C666.604 253.417 668.188 253.125 670.188 253.125ZM691.438 248.5C691.438 244.458 692 241.021 693.125 238.188C694.292 235.312 695.771 232.938 697.562 231.062C699.354 229.188 701.333 227.708 703.5 226.625C705.667 225.542 707.771 224.729 709.812 224.188C711.896 223.646 713.75 223.312 715.375 223.188C717.042 223.062 718.271 223 719.062 223H721.188C721.979 223 723.208 223.062 724.875 223.188C726.542 223.312 728.375 223.646 730.375 224.188C732.417 224.729 734.5 225.542 736.625 226.625C738.792 227.708 740.75 229.188 742.5 231.062C744.292 232.938 745.75 235.312 746.875 238.188C748 241.021 748.562 244.458 748.562 248.5V285.375C748.562 289.542 748 293.083 746.875 296C745.75 298.917 744.292 301.354 742.5 303.312C740.75 305.229 738.792 306.729 736.625 307.812C734.5 308.896 732.417 309.729 730.375 310.312C728.375 310.854 726.542 311.188 724.875 311.312C723.208 311.438 721.979 311.5 721.188 311.5H719.062C718.271 311.5 717.042 311.438 715.375 311.312C713.75 311.188 711.896 310.854 709.812 310.312C707.771 309.729 705.667 308.896 703.5 307.812C701.333 306.729 699.354 305.229 697.562 303.312C695.771 301.354 694.292 298.917 693.125 296C692 293.083 691.438 289.542 691.438 285.375V248.5ZM711.938 288.625C712.062 290.083 712.458 291.375 713.125 292.5C713.667 293.458 714.479 294.354 715.562 295.188C716.688 295.979 718.229 296.375 720.188 296.375C722.104 296.375 723.604 295.979 724.688 295.188C725.771 294.354 726.583 293.458 727.125 292.5C727.75 291.375 728.146 290.083 728.312 288.625V246.375C728.146 244.917 727.75 243.625 727.125 242.5C726.583 241.542 725.771 240.667 724.688 239.875C723.604 239.042 722.104 238.625 720.188 238.625C718.229 238.625 716.688 239.042 715.562 239.875C714.479 240.667 713.667 241.542 713.125 242.5C712.458 243.625 712.062 244.917 711.938 246.375V288.625ZM802.688 253.125C804.729 253.125 806.333 253.417 807.5 254C808.667 254.542 809.542 255.292 810.125 256.25C810.75 257.208 811.146 258.333 811.312 259.625C811.479 260.875 811.562 262.208 811.562 263.625V300.625C811.562 302.083 811.479 303.438 811.312 304.688C811.146 305.938 810.771 307.042 810.188 308C809.604 308.917 808.729 309.646 807.562 310.188C806.396 310.729 804.812 311 802.812 311C800.854 311 799.292 310.75 798.125 310.25C796.958 309.708 796.062 309 795.438 308.125C794.812 307.25 794.396 306.208 794.188 305C794.021 303.792 793.938 302.5 793.938 301.125V290H772.562C769.979 290 767.854 289.792 766.188 289.375C764.521 288.958 763.188 288.417 762.188 287.75C761.229 287.042 760.542 286.229 760.125 285.312C759.75 284.396 759.562 283.458 759.562 282.5C759.562 282 759.604 281.5 759.688 281C759.812 280.5 759.938 280 760.062 279.5L772.688 235.625C773.104 234.083 773.5 232.583 773.875 231.125C774.292 229.667 774.833 228.375 775.5 227.25C776.208 226.125 777.167 225.229 778.375 224.562C779.583 223.854 781.229 223.5 783.312 223.5C784.812 223.5 786.042 223.708 787 224.125C788 224.542 788.792 225.104 789.375 225.812C789.958 226.479 790.354 227.271 790.562 228.188C790.812 229.062 790.938 230 790.938 231C790.938 232 790.854 233.021 790.688 234.062C790.521 235.062 790.312 236 790.062 236.875C789.854 237.75 789.625 238.542 789.375 239.25C789.167 239.917 789.021 240.417 788.938 240.75C788.938 240.75 788.812 241.208 788.562 242.125C788.312 243 787.979 244.167 787.562 245.625C787.146 247.042 786.688 248.688 786.188 250.562C785.688 252.396 785.167 254.271 784.625 256.188C783.333 260.688 781.896 265.792 780.312 271.5L780.812 272H793.938V263.5C793.938 262.083 794.021 260.75 794.188 259.5C794.354 258.25 794.729 257.167 795.312 256.25C795.896 255.292 796.771 254.542 797.938 254C799.104 253.417 800.688 253.125 802.688 253.125Z" fill="#D7D5E4"/>
<path d="M508 382.75V392.875C508 393.771 507.969 394.646 507.906 395.5C507.865 396.354 507.688 397.115 507.375 397.781C507.083 398.448 506.615 398.99 505.969 399.406C505.323 399.802 504.396 400 503.188 400C502.021 400 501.115 399.802 500.469 399.406C499.844 398.99 499.385 398.448 499.094 397.781C498.802 397.115 498.625 396.354 498.562 395.5C498.521 394.646 498.5 393.771 498.5 392.875V363.375C498.5 362.479 498.521 361.604 498.562 360.75C498.625 359.896 498.802 359.135 499.094 358.469C499.385 357.802 499.844 357.271 500.469 356.875C501.115 356.458 502.021 356.25 503.188 356.25H513.5C516.083 356.375 518.396 356.917 520.438 357.875C521.312 358.292 522.156 358.812 522.969 359.438C523.802 360.062 524.542 360.833 525.188 361.75C525.854 362.646 526.385 363.719 526.781 364.969C527.177 366.198 527.375 367.625 527.375 369.25C527.375 371.479 527.021 373.438 526.312 375.125C525.625 376.792 524.615 378.198 523.281 379.344C521.969 380.469 520.354 381.323 518.438 381.906C516.542 382.469 514.396 382.75 512 382.75H508ZM512.25 375.312C513.292 375.25 514.229 375 515.062 374.562C515.417 374.375 515.76 374.135 516.094 373.844C516.427 373.552 516.729 373.198 517 372.781C517.271 372.344 517.479 371.833 517.625 371.25C517.792 370.667 517.875 370 517.875 369.25C517.875 368.542 517.792 367.927 517.625 367.406C517.479 366.865 517.281 366.406 517.031 366.031C516.781 365.635 516.5 365.302 516.188 365.031C515.875 364.76 515.552 364.531 515.219 364.344C514.427 363.948 513.542 363.708 512.562 363.625H508V375.312H512.25ZM556.375 392.938C556.375 393.812 556.344 394.677 556.281 395.531C556.219 396.365 556.031 397.115 555.719 397.781C555.406 398.448 554.938 398.99 554.312 399.406C553.688 399.802 552.812 400 551.688 400C550.542 400 549.646 399.812 549 399.438C548.354 399.042 547.875 398.573 547.562 398.031C547.25 397.469 547.052 396.885 546.969 396.281C546.906 395.677 546.875 395.167 546.875 394.75C546.688 395.354 546.417 395.969 546.062 396.594C545.729 397.219 545.292 397.781 544.75 398.281C544.208 398.781 543.552 399.198 542.781 399.531C542.031 399.844 541.146 400 540.125 400C538.979 400 537.833 399.812 536.688 399.438C535.542 399.062 534.51 398.438 533.594 397.562C532.677 396.688 531.927 395.552 531.344 394.156C530.781 392.74 530.5 391 530.5 388.938V379.875C530.5 377.792 530.781 376.052 531.344 374.656C531.927 373.24 532.677 372.104 533.594 371.25C534.51 370.375 535.542 369.75 536.688 369.375C537.833 369 538.979 368.812 540.125 368.812C541.146 368.812 542.031 368.969 542.781 369.281C543.552 369.594 544.208 370 544.75 370.5C545.292 371 545.729 371.562 546.062 372.188C546.417 372.812 546.688 373.438 546.875 374.062C546.875 373.021 547.021 372.156 547.312 371.469C547.604 370.781 547.979 370.24 548.438 369.844C548.896 369.427 549.406 369.146 549.969 369C550.552 368.833 551.125 368.75 551.688 368.75C552.729 368.75 553.562 368.958 554.188 369.375C554.812 369.771 555.281 370.302 555.594 370.969C555.927 371.615 556.135 372.375 556.219 373.25C556.323 374.104 556.375 374.979 556.375 375.875V392.938ZM540.125 388.125C540.125 388.688 540.146 389.24 540.188 389.781C540.229 390.323 540.344 390.812 540.531 391.25C540.719 391.688 540.99 392.042 541.344 392.312C541.719 392.562 542.229 392.688 542.875 392.688C543.688 392.688 544.344 392.51 544.844 392.156C545.365 391.781 545.771 391.219 546.062 390.469C546.354 389.698 546.552 388.74 546.656 387.594C546.781 386.427 546.854 385.042 546.875 383.438C546.875 382.792 546.812 382.052 546.688 381.219C546.583 380.365 546.385 379.562 546.094 378.812C545.802 378.062 545.396 377.427 544.875 376.906C544.354 376.385 543.688 376.125 542.875 376.125C542.229 376.125 541.719 376.26 541.344 376.531C540.99 376.781 540.719 377.115 540.531 377.531C540.344 377.948 540.229 378.427 540.188 378.969C540.146 379.49 540.125 380.021 540.125 380.562V388.125ZM588.562 400.938C588.562 402.812 588.302 404.396 587.781 405.688C587.281 406.979 586.635 408.052 585.844 408.906C585.052 409.76 584.167 410.427 583.188 410.906C582.229 411.385 581.281 411.74 580.344 411.969C579.427 412.219 578.583 412.365 577.812 412.406C577.042 412.469 576.458 412.5 576.062 412.5C574.583 412.5 573.104 412.396 571.625 412.188C570.146 411.979 568.792 411.594 567.562 411.031C566.354 410.469 565.344 409.708 564.531 408.75C563.74 407.792 563.292 406.562 563.188 405.062C563.188 404.812 563.229 404.531 563.312 404.219C563.396 403.906 563.583 403.604 563.875 403.312C564.167 403.042 564.604 402.802 565.188 402.594C565.771 402.406 566.562 402.312 567.562 402.312C568.771 402.312 569.698 402.406 570.344 402.594C570.99 402.802 571.469 403.042 571.781 403.312C572.094 403.604 572.292 403.906 572.375 404.219C572.479 404.552 572.583 404.854 572.688 405.125C572.854 405.562 573.177 405.865 573.656 406.031C574.156 406.219 574.833 406.312 575.688 406.312C576.458 406.312 577.062 406.135 577.5 405.781C577.958 405.427 578.302 405 578.531 404.5C578.76 404.021 578.906 403.521 578.969 403C579.031 402.5 579.062 402.083 579.062 401.75V394.75C578.875 395.375 578.604 396 578.25 396.625C577.917 397.25 577.479 397.812 576.938 398.312C576.396 398.812 575.74 399.219 574.969 399.531C574.219 399.844 573.333 400 572.312 400C571.167 400 570.021 399.812 568.875 399.438C567.729 399.062 566.688 398.448 565.75 397.594C564.833 396.719 564.083 395.573 563.5 394.156C562.917 392.74 562.625 390.979 562.625 388.875V379.812C562.625 377.75 562.917 376.021 563.5 374.625C564.083 373.208 564.833 372.062 565.75 371.188C566.688 370.312 567.729 369.688 568.875 369.312C570.021 368.938 571.167 368.75 572.312 368.75C573.333 368.75 574.219 368.917 574.969 369.25C575.74 369.562 576.396 369.969 576.938 370.469C577.479 370.969 577.917 371.531 578.25 372.156C578.604 372.781 578.875 373.396 579.062 374C579.062 373.583 579.094 373.073 579.156 372.469C579.24 371.865 579.438 371.292 579.75 370.75C580.062 370.188 580.542 369.719 581.188 369.344C581.833 368.948 582.729 368.75 583.875 368.75C585 368.75 585.875 368.958 586.5 369.375C587.125 369.771 587.594 370.302 587.906 370.969C588.219 371.635 588.406 372.396 588.469 373.25C588.531 374.083 588.562 374.938 588.562 375.812V400.938ZM572.312 388.188C572.312 388.729 572.333 389.271 572.375 389.812C572.417 390.354 572.531 390.844 572.719 391.281C572.906 391.698 573.177 392.042 573.531 392.312C573.906 392.562 574.417 392.688 575.062 392.688C575.875 392.688 576.542 392.427 577.062 391.906C577.583 391.385 577.99 390.75 578.281 390C578.573 389.229 578.771 388.427 578.875 387.594C579 386.74 579.062 385.979 579.062 385.312C579.042 383.729 578.969 382.354 578.844 381.188C578.74 380.021 578.542 379.062 578.25 378.312C577.958 377.542 577.552 376.979 577.031 376.625C576.531 376.25 575.875 376.062 575.062 376.062C574.417 376.062 573.906 376.198 573.531 376.469C573.177 376.719 572.906 377.062 572.719 377.5C572.531 377.938 572.417 378.427 572.375 378.969C572.333 379.51 572.312 380.062 572.312 380.625V388.188ZM621.562 382.188C621.562 382.521 621.542 382.917 621.5 383.375C621.458 383.812 621.292 384.24 621 384.656C620.729 385.052 620.292 385.396 619.688 385.688C619.083 385.979 618.229 386.125 617.125 386.125H604.688V389.125C604.688 389.625 604.75 390.146 604.875 390.688C605 391.229 605.208 391.729 605.5 392.188C605.812 392.646 606.219 393.021 606.719 393.312C607.219 393.604 607.833 393.75 608.562 393.75C609.396 393.75 610.031 393.656 610.469 393.469C610.927 393.26 611.281 393.01 611.531 392.719C611.802 392.427 612.042 392.115 612.25 391.781C612.458 391.448 612.729 391.135 613.062 390.844C613.417 390.552 613.896 390.312 614.5 390.125C615.125 389.917 615.979 389.812 617.062 389.812C617.583 389.812 618.083 389.854 618.562 389.938C619.062 390.021 619.5 390.177 619.875 390.406C620.25 390.635 620.552 390.958 620.781 391.375C621.01 391.771 621.125 392.292 621.125 392.938C621.125 394.292 620.698 395.427 619.844 396.344C618.99 397.24 617.917 397.958 616.625 398.5C615.333 399.042 613.927 399.427 612.406 399.656C610.906 399.885 609.5 400 608.188 400C606.458 399.979 604.812 399.76 603.25 399.344C601.688 398.927 600.302 398.26 599.094 397.344C597.906 396.427 596.958 395.229 596.25 393.75C595.542 392.271 595.188 390.458 595.188 388.312V381C595.188 379.021 595.417 377.344 595.875 375.969C596.354 374.594 596.969 373.448 597.719 372.531C598.469 371.615 599.312 370.906 600.25 370.406C601.188 369.885 602.135 369.5 603.094 369.25C604.052 369 604.958 368.844 605.812 368.781C606.688 368.719 607.438 368.688 608.062 368.688C610.167 368.688 611.958 368.875 613.438 369.25C614.938 369.625 616.188 370.115 617.188 370.719C618.188 371.323 618.979 372.021 619.562 372.812C620.146 373.604 620.583 374.427 620.875 375.281C621.167 376.115 621.354 376.969 621.438 377.844C621.521 378.698 621.562 379.5 621.562 380.25V382.188ZM604.688 381.438H612.5C612.5 380.458 612.469 379.594 612.406 378.844C612.365 378.073 612.208 377.427 611.938 376.906C611.688 376.385 611.281 375.99 610.719 375.719C610.177 375.448 609.396 375.312 608.375 375.312C607.521 375.312 606.844 375.448 606.344 375.719C605.865 375.99 605.5 376.333 605.25 376.75C605 377.146 604.844 377.573 604.781 378.031C604.719 378.49 604.688 378.896 604.688 379.25V381.438ZM679.312 392.875C679.312 393.771 679.26 394.646 679.156 395.5C679.052 396.354 678.823 397.115 678.469 397.781C678.135 398.448 677.646 398.99 677 399.406C676.375 399.802 675.521 400 674.438 400C673.375 400 672.531 399.802 671.906 399.406C671.281 398.99 670.802 398.448 670.469 397.781C670.135 397.115 669.917 396.354 669.812 395.5C669.729 394.646 669.688 393.771 669.688 392.875V380.688C669.688 380.104 669.656 379.531 669.594 378.969C669.552 378.406 669.438 377.917 669.25 377.5C669.062 377.062 668.781 376.719 668.406 376.469C668.052 376.198 667.562 376.062 666.938 376.062C666.083 376.062 665.396 376.344 664.875 376.906C664.354 377.469 663.938 378.24 663.625 379.219C663.333 380.198 663.135 381.354 663.031 382.688C662.927 384 662.875 385.417 662.875 386.938V392.875C662.875 393.771 662.823 394.646 662.719 395.5C662.615 396.354 662.385 397.115 662.031 397.781C661.698 398.448 661.208 398.99 660.562 399.406C659.938 399.802 659.083 400 658 400C656.938 400 656.094 399.802 655.469 399.406C654.844 398.99 654.365 398.448 654.031 397.781C653.698 397.115 653.479 396.354 653.375 395.5C653.292 394.646 653.25 393.771 653.25 392.875V375.812C653.25 374.917 653.281 374.052 653.344 373.219C653.406 372.365 653.594 371.615 653.906 370.969C654.219 370.302 654.688 369.771 655.312 369.375C655.958 368.958 656.854 368.75 658 368.75C659.146 368.75 660.042 368.948 660.688 369.344C661.333 369.719 661.812 370.177 662.125 370.719C662.458 371.26 662.667 371.833 662.75 372.438C662.833 373.042 662.875 373.562 662.875 374C663.042 373.396 663.302 372.781 663.656 372.156C664.01 371.531 664.458 370.969 665 370.469C665.562 369.969 666.229 369.562 667 369.25C667.771 368.917 668.667 368.75 669.688 368.75C670.833 368.75 671.979 368.938 673.125 369.312C674.271 369.688 675.302 370.312 676.219 371.188C677.135 372.062 677.875 373.208 678.438 374.625C679.021 376.042 679.312 377.792 679.312 379.875V392.875ZM685.375 380.5C685.375 378.583 685.635 376.958 686.156 375.625C686.677 374.292 687.344 373.177 688.156 372.281C688.99 371.385 689.906 370.688 690.906 370.188C691.927 369.688 692.927 369.312 693.906 369.062C694.885 368.812 695.792 368.656 696.625 368.594C697.479 368.531 698.146 368.5 698.625 368.5C699.104 368.5 699.76 368.531 700.594 368.594C701.427 368.656 702.312 368.812 703.25 369.062C704.208 369.312 705.167 369.688 706.125 370.188C707.104 370.688 707.979 371.385 708.75 372.281C709.542 373.177 710.188 374.292 710.688 375.625C711.188 376.958 711.438 378.583 711.438 380.5V388.25C711.438 390.167 711.188 391.792 710.688 393.125C710.188 394.458 709.542 395.573 708.75 396.469C707.979 397.365 707.104 398.062 706.125 398.562C705.167 399.062 704.208 399.438 703.25 399.688C702.312 399.938 701.427 400.094 700.594 400.156C699.76 400.219 699.104 400.25 698.625 400.25C698.146 400.25 697.479 400.219 696.625 400.156C695.792 400.094 694.885 399.938 693.906 399.688C692.927 399.438 691.927 399.062 690.906 398.562C689.906 398.062 688.99 397.365 688.156 396.469C687.344 395.573 686.677 394.458 686.156 393.125C685.635 391.792 685.375 390.167 685.375 388.25V380.5ZM695 390.438C695.021 391.042 695.167 391.573 695.438 392.031C695.667 392.448 696.021 392.823 696.5 393.156C697 393.469 697.708 393.625 698.625 393.625C699.5 393.625 700.167 393.469 700.625 393.156C701.104 392.823 701.458 392.448 701.688 392.031C701.938 391.573 702.083 391.042 702.125 390.438V379.125C702.083 378.5 701.938 377.927 701.688 377.406C701.458 376.99 701.104 376.604 700.625 376.25C700.167 375.875 699.5 375.688 698.625 375.688C697.708 375.688 697 375.875 696.5 376.25C696.021 376.604 695.667 376.99 695.438 377.406C695.167 377.927 695.021 378.5 695 379.125V390.438ZM721.938 368.75V363.25C721.938 362.375 721.979 361.521 722.062 360.688C722.167 359.854 722.385 359.115 722.719 358.469C723.052 357.802 723.531 357.271 724.156 356.875C724.781 356.458 725.625 356.25 726.688 356.25C727.729 356.25 728.562 356.458 729.188 356.875C729.812 357.271 730.281 357.802 730.594 358.469C730.927 359.115 731.135 359.854 731.219 360.688C731.323 361.521 731.375 362.375 731.375 363.25V368.75H733.938C734.479 368.75 735.021 368.781 735.562 368.844C736.104 368.885 736.583 369.031 737 369.281C737.438 369.531 737.781 369.906 738.031 370.406C738.302 370.906 738.438 371.604 738.438 372.5C738.438 373.354 738.302 374.031 738.031 374.531C737.781 375.031 737.438 375.406 737 375.656C736.583 375.906 736.104 376.073 735.562 376.156C735.021 376.219 734.479 376.25 733.938 376.25H731.375V387.188C731.375 387.604 731.385 388.052 731.406 388.531C731.448 388.99 731.562 389.417 731.75 389.812C731.938 390.208 732.219 390.542 732.594 390.812C732.969 391.062 733.5 391.188 734.188 391.188C734.938 391.188 735.573 391.25 736.094 391.375C736.635 391.479 737.073 391.677 737.406 391.969C737.76 392.26 738.021 392.667 738.188 393.188C738.354 393.708 738.438 394.375 738.438 395.188C738.438 396.021 738.24 396.74 737.844 397.344C737.469 397.948 736.958 398.448 736.312 398.844C735.667 399.24 734.917 399.531 734.062 399.719C733.208 399.906 732.312 400 731.375 400C729.896 400 728.625 399.844 727.562 399.531C726.521 399.219 725.646 398.781 724.938 398.219C724.25 397.635 723.698 396.948 723.281 396.156C722.885 395.344 722.583 394.438 722.375 393.438C722.188 392.438 722.062 391.365 722 390.219C721.958 389.052 721.938 387.833 721.938 386.562V376.25H720.188C719.646 376.25 719.104 376.219 718.562 376.156C718.042 376.073 717.573 375.906 717.156 375.656C716.74 375.406 716.396 375.031 716.125 374.531C715.875 374.031 715.75 373.354 715.75 372.5C715.75 371.604 715.875 370.906 716.125 370.406C716.396 369.906 716.74 369.531 717.156 369.281C717.573 369.031 718.042 368.885 718.562 368.844C719.104 368.781 719.646 368.75 720.188 368.75H721.938ZM783.625 368.75C784.146 368.75 784.677 368.781 785.219 368.844C785.76 368.906 786.24 369.062 786.656 369.312C787.094 369.562 787.448 369.948 787.719 370.469C787.99 370.99 788.125 371.708 788.125 372.625C788.125 373.479 787.99 374.156 787.719 374.656C787.448 375.135 787.094 375.51 786.656 375.781C786.24 376.031 785.76 376.198 785.219 376.281C784.677 376.344 784.146 376.375 783.625 376.375H781.75V392.938C781.75 393.854 781.698 394.74 781.594 395.594C781.51 396.427 781.292 397.177 780.938 397.844C780.604 398.49 780.104 399.01 779.438 399.406C778.792 399.802 777.917 400 776.812 400C775.75 400 774.906 399.802 774.281 399.406C773.677 399.01 773.219 398.49 772.906 397.844C772.594 397.177 772.396 396.427 772.312 395.594C772.229 394.74 772.188 393.854 772.188 392.938V376.375H770.438C769.854 376.375 769.292 376.344 768.75 376.281C768.229 376.198 767.76 376.031 767.344 375.781C766.948 375.51 766.625 375.135 766.375 374.656C766.125 374.156 766 373.479 766 372.625C766 371.708 766.125 370.99 766.375 370.469C766.625 369.948 766.948 369.562 767.344 369.312C767.76 369.062 768.229 368.906 768.75 368.844C769.292 368.781 769.854 368.75 770.438 368.75H772.188C772.188 366.917 772.271 365.229 772.438 363.688C772.604 362.146 773.01 360.833 773.656 359.75C774.302 358.646 775.26 357.792 776.531 357.188C777.802 356.562 779.542 356.25 781.75 356.25C782.688 356.25 783.573 356.333 784.406 356.5C785.24 356.667 785.969 356.927 786.594 357.281C787.219 357.635 787.708 358.104 788.062 358.688C788.438 359.25 788.625 359.938 788.625 360.75C788.625 361.5 788.49 362.125 788.219 362.625C787.969 363.125 787.656 363.531 787.281 363.844C786.906 364.156 786.49 364.375 786.031 364.5C785.594 364.625 785.188 364.688 784.812 364.688C784.5 364.688 784.208 364.615 783.938 364.469C783.667 364.323 783.354 364.25 783 364.25C782.708 364.25 782.479 364.344 782.312 364.531C782.167 364.719 782.042 364.969 781.938 365.281C781.854 365.594 781.802 365.938 781.781 366.312C781.76 366.688 781.75 367.062 781.75 367.438V368.75H783.625ZM791.875 380.5C791.875 378.583 792.135 376.958 792.656 375.625C793.177 374.292 793.844 373.177 794.656 372.281C795.49 371.385 796.406 370.688 797.406 370.188C798.427 369.688 799.427 369.312 800.406 369.062C801.385 368.812 802.292 368.656 803.125 368.594C803.979 368.531 804.646 368.5 805.125 368.5C805.604 368.5 806.26 368.531 807.094 368.594C807.927 368.656 808.812 368.812 809.75 369.062C810.708 369.312 811.667 369.688 812.625 370.188C813.604 370.688 814.479 371.385 815.25 372.281C816.042 373.177 816.688 374.292 817.188 375.625C817.688 376.958 817.938 378.583 817.938 380.5V388.25C817.938 390.167 817.688 391.792 817.188 393.125C816.688 394.458 816.042 395.573 815.25 396.469C814.479 397.365 813.604 398.062 812.625 398.562C811.667 399.062 810.708 399.438 809.75 399.688C808.812 399.938 807.927 400.094 807.094 400.156C806.26 400.219 805.604 400.25 805.125 400.25C804.646 400.25 803.979 400.219 803.125 400.156C802.292 400.094 801.385 399.938 800.406 399.688C799.427 399.438 798.427 399.062 797.406 398.562C796.406 398.062 795.49 397.365 794.656 396.469C793.844 395.573 793.177 394.458 792.656 393.125C792.135 391.792 791.875 390.167 791.875 388.25V380.5ZM801.5 390.438C801.521 391.042 801.667 391.573 801.938 392.031C802.167 392.448 802.521 392.823 803 393.156C803.5 393.469 804.208 393.625 805.125 393.625C806 393.625 806.667 393.469 807.125 393.156C807.604 392.823 807.958 392.448 808.188 392.031C808.438 391.573 808.583 391.042 808.625 390.438V379.125C808.583 378.5 808.438 377.927 808.188 377.406C807.958 376.99 807.604 376.604 807.125 376.25C806.667 375.875 806 375.688 805.125 375.688C804.208 375.688 803.5 375.875 803 376.25C802.521 376.604 802.167 376.99 801.938 377.406C801.667 377.927 801.521 378.5 801.5 379.125V390.438ZM824.062 375.875C824.062 374.979 824.115 374.104 824.219 373.25C824.323 372.396 824.542 371.635 824.875 370.969C825.229 370.302 825.719 369.771 826.344 369.375C826.99 368.958 827.854 368.75 828.938 368.75C830 368.75 830.844 368.958 831.469 369.375C832.094 369.771 832.573 370.302 832.906 370.969C833.24 371.635 833.448 372.396 833.531 373.25C833.635 374.104 833.688 374.979 833.688 375.875V388.062C833.688 388.667 833.708 389.25 833.75 389.812C833.812 390.354 833.938 390.844 834.125 391.281C834.312 391.698 834.583 392.042 834.938 392.312C835.312 392.562 835.812 392.688 836.438 392.688C837.271 392.688 837.948 392.406 838.469 391.844C839.01 391.281 839.427 390.51 839.719 389.531C840.031 388.552 840.24 387.406 840.344 386.094C840.448 384.76 840.5 383.333 840.5 381.812V375.875C840.5 374.979 840.552 374.104 840.656 373.25C840.76 372.396 840.979 371.635 841.312 370.969C841.667 370.302 842.156 369.771 842.781 369.375C843.427 368.958 844.292 368.75 845.375 368.75C846.438 368.75 847.281 368.958 847.906 369.375C848.531 369.771 849.01 370.302 849.344 370.969C849.677 371.635 849.885 372.396 849.969 373.25C850.073 374.104 850.125 374.979 850.125 375.875V392.938C850.125 393.833 850.094 394.708 850.031 395.562C849.969 396.396 849.781 397.146 849.469 397.812C849.156 398.458 848.677 398.99 848.031 399.406C847.406 399.802 846.521 400 845.375 400C844.229 400 843.333 399.812 842.688 399.438C842.042 399.042 841.552 398.573 841.219 398.031C840.906 397.49 840.708 396.917 840.625 396.312C840.542 395.708 840.5 395.188 840.5 394.75C840.333 395.354 840.073 395.969 839.719 396.594C839.365 397.219 838.906 397.781 838.344 398.281C837.802 398.781 837.146 399.198 836.375 399.531C835.604 399.844 834.708 400 833.688 400C832.542 400 831.396 399.812 830.25 399.438C829.104 399.062 828.073 398.438 827.156 397.562C826.24 396.688 825.49 395.542 824.906 394.125C824.344 392.708 824.062 390.958 824.062 388.875V375.875ZM884.188 392.875C884.188 393.771 884.135 394.646 884.031 395.5C883.927 396.354 883.698 397.115 883.344 397.781C883.01 398.448 882.521 398.99 881.875 399.406C881.25 399.802 880.396 400 879.312 400C878.25 400 877.406 399.802 876.781 399.406C876.156 398.99 875.677 398.448 875.344 397.781C875.01 397.115 874.792 396.354 874.688 395.5C874.604 394.646 874.562 393.771 874.562 392.875V380.688C874.562 380.104 874.531 379.531 874.469 378.969C874.427 378.406 874.312 377.917 874.125 377.5C873.938 377.062 873.656 376.719 873.281 376.469C872.927 376.198 872.438 376.062 871.812 376.062C870.958 376.062 870.271 376.344 869.75 376.906C869.229 377.469 868.812 378.24 868.5 379.219C868.208 380.198 868.01 381.354 867.906 382.688C867.802 384 867.75 385.417 867.75 386.938V392.875C867.75 393.771 867.698 394.646 867.594 395.5C867.49 396.354 867.26 397.115 866.906 397.781C866.573 398.448 866.083 398.99 865.438 399.406C864.812 399.802 863.958 400 862.875 400C861.812 400 860.969 399.802 860.344 399.406C859.719 398.99 859.24 398.448 858.906 397.781C858.573 397.115 858.354 396.354 858.25 395.5C858.167 394.646 858.125 393.771 858.125 392.875V375.812C858.125 374.917 858.156 374.052 858.219 373.219C858.281 372.365 858.469 371.615 858.781 370.969C859.094 370.302 859.562 369.771 860.188 369.375C860.833 368.958 861.729 368.75 862.875 368.75C864.021 368.75 864.917 368.948 865.562 369.344C866.208 369.719 866.688 370.177 867 370.719C867.333 371.26 867.542 371.833 867.625 372.438C867.708 373.042 867.75 373.562 867.75 374C867.917 373.396 868.177 372.781 868.531 372.156C868.885 371.531 869.333 370.969 869.875 370.469C870.438 369.969 871.104 369.562 871.875 369.25C872.646 368.917 873.542 368.75 874.562 368.75C875.708 368.75 876.854 368.938 878 369.312C879.146 369.688 880.177 370.312 881.094 371.188C882.01 372.062 882.75 373.208 883.312 374.625C883.896 376.042 884.188 377.792 884.188 379.875V392.875ZM916.25 392.938C916.25 393.812 916.219 394.677 916.156 395.531C916.094 396.365 915.906 397.115 915.594 397.781C915.281 398.448 914.812 398.99 914.188 399.406C913.562 399.802 912.688 400 911.562 400C910.417 400 909.521 399.812 908.875 399.438C908.229 399.042 907.75 398.573 907.438 398.031C907.125 397.469 906.927 396.885 906.844 396.281C906.781 395.677 906.75 395.167 906.75 394.75C906.562 395.354 906.292 395.969 905.938 396.594C905.604 397.219 905.167 397.781 904.625 398.281C904.083 398.781 903.427 399.198 902.656 399.531C901.906 399.844 901.021 400 900 400C898.854 400 897.708 399.812 896.562 399.438C895.417 399.062 894.385 398.438 893.469 397.562C892.552 396.688 891.802 395.552 891.219 394.156C890.656 392.74 890.375 391 890.375 388.938V379.875C890.375 377.792 890.656 376.052 891.219 374.656C891.802 373.24 892.552 372.104 893.469 371.25C894.385 370.375 895.417 369.75 896.562 369.375C897.708 369 898.854 368.812 900 368.812C901.021 368.812 901.906 368.969 902.656 369.281C903.427 369.594 904.083 370 904.625 370.5C905.167 371 905.604 371.562 905.938 372.188C906.292 372.812 906.562 373.438 906.75 374.062V363.375C906.75 362.479 906.792 361.604 906.875 360.75C906.979 359.875 907.188 359.115 907.5 358.469C907.833 357.802 908.312 357.271 908.938 356.875C909.583 356.458 910.458 356.25 911.562 356.25C912.604 356.25 913.438 356.458 914.062 356.875C914.688 357.271 915.156 357.802 915.469 358.469C915.802 359.115 916.01 359.875 916.094 360.75C916.198 361.604 916.25 362.479 916.25 363.375V392.938ZM900 388.125C900 388.688 900.021 389.24 900.062 389.781C900.104 390.323 900.219 390.812 900.406 391.25C900.594 391.688 900.865 392.042 901.219 392.312C901.594 392.562 902.104 392.688 902.75 392.688C903.562 392.688 904.219 392.51 904.719 392.156C905.24 391.781 905.646 391.219 905.938 390.469C906.229 389.698 906.427 388.74 906.531 387.594C906.656 386.427 906.729 385.042 906.75 383.438C906.75 382.792 906.688 382.052 906.562 381.219C906.458 380.365 906.26 379.562 905.969 378.812C905.677 378.062 905.271 377.427 904.75 376.906C904.229 376.385 903.562 376.125 902.75 376.125C902.104 376.125 901.594 376.26 901.219 376.531C900.865 376.781 900.594 377.115 900.406 377.531C900.219 377.948 900.104 378.427 900.062 378.969C900.021 379.49 900 380.021 900 380.562V388.125ZM935.5 381C935.5 381.667 935.458 382.312 935.375 382.938C935.312 383.562 935.156 384.125 934.906 384.625C934.656 385.104 934.292 385.5 933.812 385.812C933.354 386.104 932.729 386.25 931.938 386.25C931.146 386.25 930.51 386.104 930.031 385.812C929.573 385.5 929.219 385.104 928.969 384.625C928.719 384.125 928.552 383.562 928.469 382.938C928.406 382.312 928.375 381.667 928.375 381L926.75 370.875V363.25C926.75 362.375 926.823 361.521 926.969 360.688C927.115 359.854 927.375 359.115 927.75 358.469C928.125 357.823 928.646 357.302 929.312 356.906C930 356.51 930.875 356.312 931.938 356.312C933 356.312 933.865 356.521 934.531 356.938C935.198 357.333 935.719 357.865 936.094 358.531C936.469 359.177 936.719 359.917 936.844 360.75C936.99 361.583 937.062 362.438 937.062 363.312V371L935.5 381ZM937.062 394.875C937.062 396.646 936.615 397.958 935.719 398.812C934.823 399.646 933.562 400.062 931.938 400.062C930.271 400.062 928.99 399.646 928.094 398.812C927.198 397.958 926.75 396.646 926.75 394.875C926.75 393.083 927.198 391.781 928.094 390.969C928.99 390.156 930.271 389.75 931.938 389.75C933.667 389.75 934.948 390.156 935.781 390.969C936.635 391.781 937.062 393.083 937.062 394.875Z" fill="#9E9BB2"/>
<g filter="url(#filter0_f_0_1)">
<circle cx="1193" cy="53" r="2" fill="white"/>
</g>
<circle cx="1193" cy="53" r="2" fill="white"/>
<g filter="url(#filter1_f_0_1)">
<circle cx="284" cy="85" r="2" fill="white"/>
</g>
<circle cx="284" cy="85" r="2" fill="white"/>
<g filter="url(#filter2_f_0_1)">
<circle cx="72" cy="59" r="2" fill="white"/>
</g>
<circle cx="72" cy="59" r="2" fill="white"/>
<g filter="url(#filter3_f_0_1)">
<circle cx="1016" cy="28" r="2" fill="white"/>
</g>
<circle cx="1016" cy="28" r="2" fill="white"/>
<g filter="url(#filter4_f_0_1)">
<circle cx="883" cy="65" r="2" fill="white"/>
</g>
<circle cx="883" cy="65" r="2" fill="white"/>
<g filter="url(#filter5_f_0_1)">
<circle cx="1390" cy="65" r="2" fill="white"/>
</g>
<circle cx="1390" cy="65" r="2" fill="white"/>
<g filter="url(#filter6_f_0_1)">
<circle cx="677" cy="32" r="2" fill="white"/>
</g>
<circle cx="677" cy="32" r="2" fill="white"/>
<g filter="url(#filter7_f_0_1)">
<circle cx="963" cy="213" r="2" fill="white"/>
</g>
<circle cx="963" cy="213" r="2" fill="white"/>
<g filter="url(#filter8_f_0_1)">
<circle cx="1120" cy="408" r="2" fill="white"/>
</g>
<circle cx="1120" cy="408" r="2" fill="white"/>
<g filter="url(#filter9_f_0_1)">
<circle cx="1299" cy="740" r="2" fill="white"/>
</g>
<circle cx="1299" cy="740" r="2" fill="white"/>
<g filter="url(#filter10_f_0_1)">
<circle cx="1018" cy="768" r="2" fill="white"/>
</g>
<circle cx="1018" cy="768" r="2" fill="white"/>
<g filter="url(#filter11_f_0_1)">
<circle cx="1312" cy="452" r="2" fill="white"/>
</g>
<circle cx="1312" cy="452" r="2" fill="white"/>
<g filter="url(#filter12_f_0_1)">
<circle cx="1394" cy="664" r="2" fill="white"/>
</g>
<circle cx="1394" cy="664" r="2" fill="white"/>
<g filter="url(#filter13_f_0_1)">
<circle cx="1400" cy="318" r="2" fill="white"/>
</g>
<circle cx="1400" cy="318" r="2" fill="white"/>
<g filter="url(#filter14_f_0_1)">
<circle cx="634" cy="466" r="2" fill="white"/>
</g>
<circle cx="634" cy="466" r="2" fill="white"/>
<g filter="url(#filter15_f_0_1)">
<circle cx="805" cy="452" r="2" fill="white"/>
</g>
<circle cx="805" cy="452" r="2" fill="white"/>
<g filter="url(#filter16_f_0_1)">
<circle cx="943" cy="586" r="2" fill="white"/>
</g>
<circle cx="943" cy="586" r="2" fill="white"/>
<g filter="url(#filter17_f_0_1)">
<circle cx="1400" cy="507" r="2" fill="white"/>
</g>
<circle cx="1400" cy="507" r="2" fill="white"/>
<g filter="url(#filter18_f_0_1)">
<circle cx="1178" cy="474" r="2" fill="white"/>
</g>
<circle cx="1178" cy="474" r="2" fill="white"/>
<g filter="url(#filter19_f_0_1)">
<circle cx="355" cy="30" r="2" fill="white"/>
</g>
<circle cx="355" cy="30" r="2" fill="white"/>
<g filter="url(#filter20_f_0_1)">
<circle cx="43" cy="206" r="2" fill="white"/>
</g>
<circle cx="43" cy="206" r="2" fill="white"/>
<g filter="url(#filter21_f_0_1)">
<circle cx="887" cy="303" r="2" fill="white"/>
</g>
<circle cx="887" cy="303" r="2" fill="white"/>
<g filter="url(#filter22_f_0_1)">
<circle cx="508" cy="207" r="2" fill="white"/>
</g>
<circle cx="508" cy="207" r="2" fill="white"/>
<g filter="url(#filter23_f_0_1)">
<circle cx="574" cy="309" r="2" fill="white"/>
</g>
<circle cx="574" cy="309" r="2" fill="white"/>
<g filter="url(#filter24_f_0_1)">
<circle cx="794" cy="730" r="2" fill="white"/>
</g>
<circle cx="794" cy="730" r="2" fill="white"/>
<g filter="url(#filter25_f_0_1)">
<circle cx="523" cy="522" r="2" fill="white"/>
</g>
<circle cx="523" cy="522" r="2" fill="white"/>
<g filter="url(#filter26_f_0_1)">
<circle cx="564" cy="682" r="2" fill="white"/>
</g>
<circle cx="564" cy="682" r="2" fill="white"/>
<g filter="url(#filter27_f_0_1)">
<circle cx="289" cy="736" r="2" fill="white"/>
</g>
<circle cx="289" cy="736" r="2" fill="white"/>
<g filter="url(#filter28_f_0_1)">
<circle cx="43" cy="766" r="2" fill="white"/>
</g>
<circle cx="43" cy="766" r="2" fill="white"/>
<g filter="url(#filter29_f_0_1)">
<circle cx="325" cy="314" r="2" fill="white"/>
</g>
<circle cx="325" cy="314" r="2" fill="white"/>
<g filter="url(#filter30_f_0_1)">
<circle cx="101" cy="521" r="2" fill="white"/>
</g>
<circle cx="101" cy="521" r="2" fill="white"/>
<g filter="url(#filter31_f_0_1)">
<circle cx="155" cy="647" r="2" fill="white"/>
</g>
<circle cx="155" cy="647" r="2" fill="white"/>
<path d="M956.477 418C964.902 347.792 1027.51 332.69 1081.48 287C1108.06 264.491 1126.48 256.185 1152.48 233C1198.38 192.065 1192.81 102.333 1254.48 113C1316.14 123.667 1379.4 101.789 1409.98 157C1444.89 220.043 1375.48 214.5 1331.48 324C1287.48 433.5 1391.84 416.314 1389.48 482C1387.98 523.814 1360.18 543.159 1359.98 585C1359.7 640.305 1432.52 666.997 1409.98 717.5C1382.48 779.094 1238.48 738 1238.48 738C1186.64 748 1022.77 788.04 1015.48 700C1011.2 648.396 1077.1 636.595 1081.48 585C1088.37 503.829 946.772 498.883 956.477 418Z" fill="#E5E5E5" fill-opacity="0.06"/>
<g clip-path="url(#clip0_0_1)">
<path d="M1133.19 574.376C1073.93 579.959 1042.02 650.111 1081.28 698.013C1099.42 720.233 1129.72 731.224 1159.58 723.58C1175.58 719.481 1189.41 710.384 1199.26 698.548C1242.29 647.134 1201.76 567.876 1133.19 574.376Z" fill="url(#paint0_radial_0_1)"/>
<path d="M1140.39 705.028C1119.56 705.028 1101.4 693.552 1092.01 676.606C1071.27 639.243 1099.87 593.887 1141.61 595.215C1168.17 595.751 1190.6 615.21 1194.88 641.087C1200.5 674.484 1174.54 705.028 1140.39 705.028Z" fill="url(#paint1_radial_0_1)"/>
<g opacity="0.75">
<path d="M1162.33 658.991C1160.04 658.424 1159.4 661.257 1160.7 661.896C1161.99 662.545 1165.25 664.482 1165.9 663.184C1166.55 661.896 1164.93 659.64 1162.33 658.991Z" fill="#056DB1"/>
<path d="M1185.07 635.092C1182.85 635.597 1180.2 636.709 1182.47 638.327C1184.75 639.944 1188.31 639.295 1188.64 637.358C1188.96 635.411 1189.3 634.124 1185.07 635.092Z" fill="#056DB1"/>
<path d="M1140.56 687.093C1135.79 684.25 1128.86 683.22 1128.21 686.125C1127.55 689.03 1132.1 693.552 1137.63 692.903C1143.16 692.264 1143.81 689.03 1140.56 687.093Z" fill="#056DB1"/>
<path d="M1156.1 702.772C1151.8 704.039 1147.28 704.801 1142.61 704.976C1143.68 698.249 1150.11 700.371 1153.55 701.299C1154.56 701.577 1155.39 702.123 1156.1 702.772Z" fill="#056DB1"/>
<path d="M1110.34 686.774C1112.45 687.691 1113.92 683.22 1111 679.346C1108.08 675.473 1106.77 670.621 1103.2 669.653C1099.62 668.685 1097.67 681.283 1110.34 686.774Z" fill="#056DB1"/>
<path d="M1096.05 670.941C1094.9 671.147 1094.42 673.526 1097.02 673.845C1099.62 674.175 1099.62 670.302 1096.05 670.941Z" fill="#056DB1"/>
<path d="M1124.96 657.703C1122.67 657.497 1120.42 658.672 1120.74 661.257C1121.06 663.843 1124.63 661.257 1126.26 661.257C1127.89 661.257 1128.54 658.023 1124.96 657.703Z" fill="#056DB1"/>
<path d="M1147.39 627.665C1145.42 626.738 1145.11 630.899 1146.73 631.538C1148.36 632.187 1152.91 630.24 1147.39 627.665Z" fill="#056DB1"/>
</g>
<path d="M1126.59 648.659C1115.55 650.596 1113.92 650.915 1103.85 659.321C1097.19 664.873 1090.23 663.081 1086.3 661.226C1085.56 657.642 1085.17 653.923 1085.17 650.111C1085.17 634.495 1091.73 620.392 1102.25 610.4C1104.42 611.677 1106.66 613.408 1108.4 615.715C1113.27 622.174 1112.29 624.76 1126.59 632.187C1140.88 639.614 1137.64 646.722 1126.59 648.659Z" fill="url(#paint2_linear_0_1)"/>
<path d="M1190.31 626.583C1180.12 624.461 1173.16 635.926 1166.22 635.092C1158.1 634.124 1160.38 622.174 1153.55 609.575C1150.13 603.271 1149.89 598.903 1150.5 596.122C1168.15 599.357 1182.84 610.935 1190.31 626.583Z" fill="url(#paint3_linear_0_1)"/>
<path d="M1195.63 650.111C1195.63 671.425 1183.42 689.895 1165.58 699.001C1161.51 692.604 1168.11 687.855 1175.97 682.9C1185.72 676.761 1176.62 674.175 1178.24 664.162C1179.87 654.149 1173.69 653.5 1176.61 645.105C1178.7 639.109 1189.56 644.796 1195.6 648.545C1195.62 649.061 1195.63 649.586 1195.63 650.111Z" fill="url(#paint4_linear_0_1)"/>
<path d="M1143.81 666.748C1137.91 668.571 1134.71 661.577 1127.24 663.194C1119.77 664.811 1113.6 678.049 1123.67 677.729C1133.74 677.41 1136.34 676.112 1143.81 681.283C1151.28 686.454 1160.06 682.9 1162.66 674.824C1165.25 666.748 1163.62 660.608 1143.81 666.748Z" fill="url(#paint5_linear_0_1)"/>
<path d="M1156.15 642.519C1153.04 643.508 1152.26 645.105 1153.23 647.042C1154.2 648.978 1158.1 648.659 1160.05 651.564C1161.99 654.469 1166.87 658.023 1168.17 651.564C1169.48 645.105 1163.3 640.253 1156.15 642.519Z" fill="url(#paint6_linear_0_1)"/>
<path opacity="0.5" d="M1144.78 625.718C1144.2 630.024 1140.24 625.718 1133.74 624.43C1127.24 623.142 1124.64 619.259 1127.56 616.673C1130.49 614.088 1134.38 612.151 1138.29 614.407C1142.18 616.673 1145.43 620.876 1144.78 625.718Z" fill="#056DB1"/>
<path d="M1137.96 600.201C1129.83 600.201 1125.94 604.724 1118.47 607.309C1114.01 608.844 1110.49 607.062 1108.37 605.373C1117.4 598.965 1128.46 595.195 1140.4 595.195C1140.82 595.195 1141.22 595.195 1141.62 595.216C1142.19 597.544 1141.99 600.201 1137.96 600.201Z" fill="url(#paint7_linear_0_1)"/>
<path opacity="0.45" d="M1192.99 666.913C1188.49 680.871 1178.51 692.398 1165.58 699.001C1162.56 700.536 1159.39 701.803 1156.1 702.782C1151.8 704.049 1147.28 704.811 1142.61 704.986C1141.87 705.017 1141.14 705.028 1140.39 705.028C1119.56 705.028 1101.4 693.552 1092.01 676.606C1089.37 671.868 1087.43 666.696 1086.3 661.226C1085.56 657.642 1085.17 653.923 1085.17 650.111C1085.17 643.477 1086.35 637.121 1088.51 631.239C1094.76 649.792 1109.06 673.732 1141.56 678.172C1147.9 679.037 1153.83 679.151 1159.36 678.677C1172.94 677.492 1184.11 672.774 1192.99 666.913Z" fill="url(#paint8_linear_0_1)"/>
<path opacity="0.45" d="M1195.63 650.111C1195.63 655.973 1194.7 661.618 1193 666.913C1188.49 680.871 1178.51 692.398 1165.58 699.001C1162.56 700.536 1159.39 701.803 1156.1 702.782C1151.8 704.049 1147.28 704.811 1142.61 704.986C1141.87 705.017 1141.14 705.028 1140.39 705.028C1119.56 705.028 1101.4 693.552 1092.01 676.606C1101.56 680.511 1112.94 683.179 1126.43 683.704C1139.51 684.219 1150.37 682.21 1159.36 678.667C1178.7 671.064 1189.47 656.354 1195.32 644.24C1195.47 645.651 1195.56 647.093 1195.61 648.535C1195.62 649.061 1195.63 649.586 1195.63 650.111Z" fill="url(#paint9_linear_0_1)"/>
<path d="M1194.89 641.118C1194.89 641.118 1187.03 612.48 1150.87 603.055C1129.19 597.399 1114.15 602.498 1105.58 607.484C1132.94 585.275 1174.79 594.092 1190.31 626.583C1193.92 634.113 1194.63 640.067 1194.89 641.118Z" fill="url(#paint10_linear_0_1)"/>
</g>
<rect width="160.252" height="150.433" rx="15" transform="matrix(0.835813 0.549014 -0.549051 0.835789 1217.76 68.9114)" fill="#686767"/>
<rect width="160.252" height="3.27028" transform="matrix(0.835813 0.549014 -0.549051 0.835789 1195.31 103.076)" fill="#595959"/>
<rect width="160.252" height="3.27027" transform="matrix(0.835813 0.549015 -0.549051 0.835789 1186.33 116.742)" fill="#595959"/>
<ellipse cx="3.27046" cy="3.2703" rx="3.27046" ry="3.2703" transform="matrix(0.835813 0.549015 -0.549051 0.835789 1207.49 93.4697)" fill="#7D7D7D"/>
<ellipse cx="3.2704" cy="3.27026" rx="3.2704" ry="3.27026" transform="matrix(0.835811 0.549017 -0.549049 0.835791 1325.03 170.677)" fill="#7D7D7D"/>
<ellipse cx="3.27043" cy="3.27026" rx="3.27043" ry="3.27026" transform="matrix(0.835813 0.549015 -0.549051 0.835789 1186.84 124.902)" fill="#7D7D7D"/>
<ellipse cx="3.27046" cy="3.2703" rx="3.27046" ry="3.2703" transform="matrix(0.835813 0.549015 -0.549051 0.835789 1304.38 202.11)" fill="#7D7D7D"/>
<rect width="31.0692" height="83.392" rx="10" transform="matrix(0.999318 -0.0369264 0.0368827 0.99932 1263.44 188.835)" fill="#D6D6D6"/>
<ellipse cx="10.6289" cy="10.6284" rx="10.6289" ry="10.6284" transform="matrix(0.999318 -0.0369266 0.0368825 0.99932 1277.29 253.774)" fill="url(#paint11_radial_0_1)"/>
<rect width="31.0692" height="83.392" rx="10" transform="matrix(-0.294269 -0.955723 -0.95571 0.29431 1213.3 158.126)" fill="#D6D6D6"/>
<ellipse cx="10.6289" cy="10.6284" rx="10.6289" ry="10.6284" transform="matrix(-0.294269 -0.955723 -0.95571 0.294311 1148.38 166.662)" fill="url(#paint12_radial_0_1)"/>
<path d="M1234.82 257.181L1165.12 211.396L1125.72 271.369C1122.69 275.985 1123.97 282.185 1128.59 285.217L1138.52 291.743C1143.14 294.775 1149.34 293.492 1152.37 288.876L1171.01 260.506C1173.8 256.26 1179.5 255.079 1183.75 257.868C1187.99 260.657 1189.18 266.36 1186.39 270.605L1167.75 298.975C1164.72 303.591 1166 309.791 1170.62 312.823L1181.58 320.023C1186.19 323.055 1192.39 321.771 1195.43 317.155L1234.82 257.181Z" fill="#D6D6D6"/>
<rect width="106.289" height="103.014" transform="matrix(0.835813 0.549014 -0.549051 0.835789 1210.32 121.747)" fill="#E1E1E1"/>
<rect width="99.7485" height="29.4325" transform="matrix(0.835813 0.549014 -0.549051 0.835789 1165.47 195.974)" fill="#E1E1E1"/>
<rect width="8.17611" height="103.014" transform="matrix(0.835813 0.549015 -0.549051 0.835789 1223.98 130.725)" fill="url(#paint13_linear_0_1)"/>
<rect width="8.17612" height="103.014" transform="matrix(0.835813 0.549014 -0.549052 0.835788 1275.92 164.84)" fill="url(#paint14_linear_0_1)"/>
<rect width="106.289" height="3.27027" transform="matrix(0.835813 0.549014 -0.549051 0.835789 1155.55 205.112)" fill="#9A9A9A"/>
<rect width="11.4466" height="26.1622" rx="5.72329" transform="matrix(0.835814 0.549014 -0.549052 0.835788 1321.6 145.936)" fill="#D6D6D6"/>
<rect width="11.4465" height="26.1622" rx="5.72327" transform="matrix(0.835813 0.549015 -0.549051 0.835789 1223.19 81.2968)" fill="#D6D6D6"/>
<path d="M1318.31 159.425C1300.53 186.481 1264.19 194.006 1237.13 176.233C1210.07 158.459 1202.55 122.117 1220.32 95.0607C1238.1 68.0044 1274.44 60.4794 1301.5 78.2531C1328.56 96.0268 1336.08 132.369 1318.31 159.425Z" fill="#D6D6D6" stroke="#E1E1E1" stroke-width="0.5"/>
<path fill-rule="evenodd" clip-rule="evenodd" d="M1317.54 160.88C1299.11 185.848 1264.15 192.322 1237.89 175.075C1211.64 157.828 1203.69 123.171 1219.29 96.3388C1218.65 97.2111 1218.02 98.1059 1217.42 99.0231C1199.57 126.195 1207.13 162.692 1234.3 180.541C1261.48 198.391 1297.97 190.834 1315.82 163.662C1316.43 162.745 1317 161.817 1317.54 160.88Z" fill="#DDDDDD"/>
<path fill-rule="evenodd" clip-rule="evenodd" d="M1313.95 166.346C1295.52 191.315 1260.56 197.788 1234.3 180.541C1208.04 163.294 1200.1 128.638 1215.7 101.806C1215.05 102.678 1214.43 103.573 1213.83 104.49C1195.98 131.662 1203.54 168.158 1230.71 186.008C1257.88 203.857 1294.38 196.3 1312.23 169.129C1312.84 168.211 1313.41 167.284 1313.95 166.346Z" fill="#D6D6D6"/>
<path d="M1324.16 139.79C1315.39 117.401 1270.5 85.9591 1241.88 78.8972C1220.45 95.1422 1209.14 119.533 1218.97 145.039C1224.43 159.201 1232 166.081 1245.02 173.887C1254.65 179.662 1261.07 182.61 1272.29 182.999C1298.64 183.912 1320.86 155.232 1324.16 139.79Z" fill="black"/>
<rect x="1252.48" y="191.255" width="3.27044" height="1.63515" rx="0.817574" transform="rotate(13.3007 1252.48 191.255)" fill="#C4C4C4"/>
<rect width="1.63528" height="1.63508" rx="0.817539" transform="matrix(0.973176 0.230061 -0.230062 0.973176 1259.74 192.113)" fill="#C4C4C4"/>
<mask id="mask0_0_1" style="mask-type:alpha" maskUnits="userSpaceOnUse" x="1215" y="78" width="110" height="106">
<path d="M1324.16 139.792C1315.39 117.402 1270.5 85.9604 1241.88 78.8984C1220.45 95.1435 1209.14 119.534 1218.97 145.04C1224.43 159.202 1232 166.083 1245.02 173.888C1254.65 179.663 1261.07 182.611 1272.29 183C1298.64 183.914 1320.86 155.233 1324.16 139.792Z" fill="black"/>
</mask>
<g mask="url(#mask0_0_1)">
<rect width="16.3516" height="90.6049" transform="matrix(0.369765 0.929126 -0.929149 0.369707 1285.76 84.331)" fill="#484848"/>
<rect width="9.22658" height="95.5158" transform="matrix(0.369764 0.929126 -0.929149 0.369707 1302.67 106.532)" fill="#484848"/>
</g>
<ellipse cx="10.6289" cy="10.6284" rx="10.6289" ry="10.6284" transform="matrix(0.835813 0.549015 -0.549051 0.835789 1243.19 86.6036)" fill="#828282" fill-opacity="0.5"/>
<ellipse cx="5.72329" cy="5.72298" rx="5.72329" ry="5.72298" transform="matrix(0.835814 0.549013 -0.549053 0.835788 1256.85 95.5813)" fill="#828282" fill-opacity="0.5"/>
<ellipse cx="4.08804" cy="4.08785" rx="4.08804" ry="4.08785" transform="matrix(0.835812 0.549016 -0.54905 0.83579 1234.21 100.27)" fill="#828282" fill-opacity="0.5"/>
<ellipse cx="4.08805" cy="4.08785" rx="4.08805" ry="4.08785" transform="matrix(0.835813 0.549015 -0.549051 0.835789 1264.85 71.4907)" fill="#BC0D0D"/>
<ellipse cx="4.08808" cy="4.08786" rx="4.08808" ry="4.08786" transform="matrix(0.835814 0.549013 -0.549053 0.835788 1283.48 75.8994)" fill="#BC0D0D"/>
<rect width="44.151" height="22.8919" rx="5" transform="matrix(0.835813 0.549015 -0.549051 0.835789 1206.19 181.639)" fill="#273AE7"/>
<path d="M1227.63 199.634L1216.67 200.996L1222.7 203.733L1207.72 206.118" stroke="#D2CB15"/>
<g clip-path="url(#clip1_0_1)">
<path d="M86.3739 -207.939C-235.928 -177.352 -409.361 206.578 -195.905 468.794C-97.2945 590.437 67.4564 650.622 229.878 608.733C316.912 586.269 392.088 536.538 445.664 471.761C679.661 190.26 459.287 -243.542 86.3739 -207.939Z" fill="url(#paint15_radial_0_1)"/>
<path d="M447.359 205.236C447.359 224.026 445.735 242.463 442.629 260.335C440.935 269.942 438.888 279.408 436.417 288.732C422.724 339.876 396.747 385.933 361.877 423.655C349.242 437.359 335.407 449.933 320.513 461.236C306.819 471.691 292.207 481.086 276.89 489.28C256.137 500.371 234.044 509.201 210.891 515.558C183.856 522.975 155.409 526.861 126.045 526.861C112.563 526.861 99.2922 526.013 86.3041 524.388C-22.5416 510.967 -114.588 443.011 -161.599 348.706C-179.952 311.973 -191.457 271.284 -194.492 228.264C-195.057 220.635 -195.34 212.935 -195.34 205.236C-195.34 156.706 -184.61 110.719 -165.411 69.4649C-148.258 32.5907 -124.258 -0.468956 -95.1761 -28.0893C-68.2823 -53.6611 -36.9415 -74.6412 -2.42427 -89.6876C36.8929 -106.853 80.3746 -116.39 125.974 -116.39C264.537 -116.39 382.63 -28.6544 427.735 94.4009C438.959 125.059 445.664 157.836 447.076 192.096C447.288 196.405 447.359 200.785 447.359 205.236Z" fill="url(#paint16_radial_0_1)"/>
<path d="M90.7526 294.03C90.3291 296.644 89.4115 299.116 88.0703 301.377C77.8352 319.743 42.1885 328.785 2.4478 321.933C-32.14 315.929 -59.7397 299.54 -68.6338 281.739C-71.2455 276.512 -72.2336 271.214 -71.316 265.916C-67.2925 242.746 -28.3989 237.165 16.3535 245.006C61.1059 252.706 94.7761 270.86 90.7526 294.03Z" fill="#BCBCBC"/>
<path d="M-4.47047 140.882L-4.54113 140.953C-13.4351 154.374 -41.1759 142.083 -73.4344 120.962C-99.7635 103.725 -118.54 86.5598 -119.81 73.4913C-120.093 70.5244 -119.457 67.6988 -117.834 65.1558C-108.94 51.5928 -73.6461 50.6745 -41.3171 71.8666C-8.98808 93.0587 4.42354 127.319 -4.47047 140.882Z" fill="#BCBCBC"/>
<path d="M351.572 338.958C325.525 360.715 294.326 366.295 281.973 351.39C281.338 350.613 280.773 349.836 280.279 348.989C270.82 333.518 282.114 305.757 306.82 285.2C331.949 264.22 361.807 258.286 375.007 271.214C375.501 271.708 375.995 272.203 376.419 272.697C388.772 287.602 377.69 317.271 351.572 338.958Z" fill="#BCBCBC"/>
<path d="M163.668 160.591C137.339 181.43 110.587 192.944 95.2692 173.589C93.7868 171.752 92.5869 169.774 91.528 167.655C81.787 148.017 91.3869 119.549 115.245 100.688C141.574 79.8492 177.504 70.0302 201.997 101.041C202.139 101.253 202.35 101.465 202.421 101.677C216.821 120.821 189.786 139.964 163.668 160.591Z" fill="#BCBCBC"/>
<path d="M58.4927 451.629C54.681 455.302 47.1281 457.351 35.2694 456.786C-8.21244 454.878 -55.4354 401.898 -42.2355 384.874C-42.0238 384.591 -41.812 384.379 -41.6003 384.167C-27.9063 368.697 6.39914 396.529 23.9048 405.713C52.775 420.83 68.5867 441.951 58.4927 451.629Z" fill="#BCBCBC"/>
<path d="M229.032 412.565C229.103 422.595 215.48 433.192 194.021 434.11C154.775 435.805 132.398 428.247 127.104 414.26C126.54 412.776 126.187 411.222 125.975 409.527C124.069 392.503 159.998 395.399 178.915 394.41C214.421 392.503 228.962 402.251 229.032 412.565Z" fill="#BCBCBC"/>
<path d="M347.971 186.869C343.666 193.298 335.336 197.677 324.536 197.677C290.513 197.677 245.126 173.094 250.843 150.348C251.478 147.735 252.467 145.474 253.596 143.637C262.349 129.509 284.443 136.361 305.69 140.882C348.183 149.924 357.289 173.094 347.971 186.869Z" fill="#BCBCBC"/>
<path d="M237.502 19.8048C237.079 18.8158 236.867 17.6856 236.726 16.4847C235.879 6.80697 245.408 -7.32108 263.973 -12.4072C276.043 -15.7273 292.349 -15.3035 302.443 -9.08711C306.89 -6.33214 310.066 -2.51755 311.266 2.70983C314.089 15.7076 243.502 34.8511 237.502 19.8048Z" fill="#BCBCBC"/>
<path d="M400.065 108.741C398.583 109.447 396.818 109.589 394.912 109.094C387.006 107.046 376.701 94.8955 373.595 76.5997C371.83 65.8623 377.195 55.5489 384.183 52.2994C391.947 48.6261 401.759 53.7122 405.712 76.5997C408.041 89.5975 407.688 104.926 400.065 108.741Z" fill="#BCBCBC"/>
<path d="M361.878 423.655C337.526 450.004 308.797 472.256 276.891 489.209C273.291 487.443 270.044 484.83 268.774 481.086C267.644 477.765 268.138 473.527 271.597 468.158C284.797 447.32 298.067 415.178 328.279 413.271C337.102 412.706 344.09 413.765 349.667 415.743C355.031 417.721 358.984 420.547 361.878 423.655Z" fill="#BCBCBC"/>
<path d="M210.821 515.488C183.786 522.905 155.339 526.79 125.975 526.79C112.493 526.79 99.2225 525.942 86.2344 524.318C86.2344 520.503 86.9403 516.406 89.2697 512.945C91.5285 509.624 95.2696 506.94 101.411 505.951C124.069 502.137 135.434 487.02 167.551 488.927C184.21 489.916 195.857 498.039 203.127 505.598C206.727 509.413 209.198 512.945 210.821 515.488Z" fill="#BCBCBC"/>
<path d="M71.1974 354.64C62.7269 350.401 56.0917 347.081 57.9975 364.105C59.9034 381.13 73.1032 384.944 84.4678 384.944C95.7618 384.944 78.7503 358.454 71.1974 354.64Z" fill="#9B9B9B"/>
<path d="M447.358 205.235C447.358 224.026 445.734 242.463 442.629 260.335C439.876 259.275 437.052 257.368 434.088 254.401C415.17 235.47 429.499 208.626 434.088 199.514C439.17 189.341 444.252 190.26 447.076 192.026C447.287 196.405 447.358 200.785 447.358 205.235Z" fill="#9B9B9B"/>
<path d="M252.678 226.004C241.737 224.661 235.666 233.562 252.678 241.121C269.689 248.75 267.783 227.911 252.678 226.004Z" fill="#9B9B9B"/>
<path d="M114.68 8.50235C109.033 10.4096 101.481 16.0609 114.68 17.9681C127.88 19.8048 120.327 6.59506 114.68 8.50235Z" fill="#9B9B9B"/>
<path d="M146.797 8.50232C139.88 4.47582 139.244 23.6193 144.891 31.1778C150.538 38.7363 169.456 21.712 146.797 8.50232Z" fill="#9B9B9B"/>
<path d="M207.29 456.856C203.196 457.774 201.643 464.415 212.937 468.229C224.301 471.973 224.301 453.042 207.29 456.856Z" fill="#9B9B9B"/>
<path d="M42.8222 488.997C37.1752 490.905 31.4576 494.649 42.8222 498.463C54.1868 502.207 48.4692 487.09 42.8222 488.997Z" fill="#9B9B9B"/>
<path d="M52.2808 210.887C42.6809 211.381 63.6454 224.096 69.2923 226.004C74.9393 227.911 91.9509 208.979 52.2808 210.887Z" fill="#9B9B9B"/>
<path d="M362.3 161.721C357.571 165.394 366.112 186.304 373.665 184.397C381.218 182.489 379.312 148.441 362.3 161.721Z" fill="#9B9B9B"/>
<path d="M210.257 294.313C209.41 297.563 208.351 300.741 207.292 303.567C201.786 318.331 169.245 324.123 160.634 317.342C160.422 317.2 160.21 316.989 159.998 316.777C152.446 309.218 159.787 290.216 163.81 280.821C169.457 267.611 197.833 258.145 207.292 261.889C214.915 265.068 213.927 280.538 210.257 294.313Z" fill="#BCBCBC"/>
<path d="M-119.81 73.562C-120.093 70.5951 -119.457 67.7695 -117.834 65.2265C-108.94 51.6635 -73.6461 50.7452 -41.3171 71.9373C-8.98808 93.1294 4.42354 127.39 -4.47047 140.953L-4.54113 141.023C-4.04701 132.759 -7.50572 121.174 -19.5762 104.997C-51.0581 62.966 -108.446 48.4847 -119.81 73.562Z" fill="#9B9B9B"/>
<path d="M90.7526 294.03C90.3291 296.644 89.4115 299.116 88.0703 301.377C87.2939 298.127 80.3057 272.626 48.4708 261.96C15.4359 250.94 -29.0342 241.121 -55.5045 261.96C-63.975 268.6 -67.5749 275.452 -68.6338 281.668C-71.2455 276.441 -72.2336 271.143 -71.316 265.845C-67.2925 242.675 -28.3989 237.094 16.3535 244.935C61.1059 252.706 94.7761 270.86 90.7526 294.03Z" fill="#9B9B9B"/>
<path d="M142.986 95.4607C107.834 107.611 93.0104 142.083 91.528 167.655C81.787 148.017 91.3869 119.549 115.245 100.688C141.574 79.8492 177.504 70.0302 201.997 101.041C202.139 101.253 202.35 101.465 202.421 101.677C191.833 93.4828 172.562 85.2885 142.986 95.4607Z" fill="#9B9B9B"/>
<path d="M210.257 294.313C209.904 280.609 206.515 265.139 192.186 269.518C177.504 274.039 160.845 300.671 160.704 317.342C160.493 317.2 160.281 316.989 160.069 316.777C152.516 309.218 159.857 290.216 163.881 280.821C169.528 267.611 197.904 258.145 207.363 261.889C214.916 265.068 213.927 280.538 210.257 294.313Z" fill="#9B9B9B"/>
<path d="M347.972 186.869C352.278 161.933 312.325 153.88 292.349 146.604C272.585 139.399 259.032 141.942 253.526 143.637C262.279 129.509 284.373 136.361 305.62 140.882C348.184 149.924 357.29 173.094 347.972 186.869Z" fill="#9B9B9B"/>
<path d="M237.504 19.8049C237.08 18.8159 236.868 17.6857 236.727 16.4848C248.656 24.3965 279.221 17.9682 296.091 10.3391C308.162 4.82912 306.185 -3.22386 302.444 -9.01636C306.891 -6.26139 310.067 -2.44683 311.267 2.78055C314.091 15.7077 243.504 34.8512 237.504 19.8049Z" fill="#9B9B9B"/>
<path d="M58.4929 451.629C56.8693 441.457 47.5518 431.567 31.4579 422.737C10.6346 411.364 -4.47114 400.061 -17.671 390.596C-24.5885 385.651 -34.1178 384.309 -41.6001 384.167C-27.9061 368.697 6.39931 396.529 23.905 405.713C52.7752 420.83 68.5869 441.951 58.4929 451.629Z" fill="#9B9B9B"/>
<path d="M229.032 412.565C225.997 405.006 216.821 401.898 201.574 401.898H148.634C128.375 401.898 127.104 413.624 127.104 414.189C126.54 412.706 126.187 411.152 125.975 409.456C124.069 392.432 159.998 395.328 178.915 394.339C214.421 392.503 228.962 402.251 229.032 412.565Z" fill="#9B9B9B"/>
<path d="M203.127 505.669C206.727 509.342 209.198 512.945 210.821 515.488C183.786 522.905 155.339 526.79 125.975 526.79C112.493 526.79 99.2225 525.942 86.2344 524.318C86.2344 520.503 86.9403 516.406 89.2697 512.945C152.092 527.779 188.304 514.004 203.127 505.669Z" fill="#9B9B9B"/>
<path d="M361.877 423.655C337.525 450.004 308.795 472.256 276.89 489.21C273.29 487.444 270.043 484.83 268.772 481.086C321.501 461.307 344.301 425.492 349.665 415.814C355.03 417.722 358.983 420.547 361.877 423.655Z" fill="#9B9B9B"/>
<path d="M375.007 271.214C370.772 269.73 340.631 261.324 305.549 301.66C287.832 322.075 281.691 337.898 280.279 348.989C270.82 333.518 282.114 305.757 306.82 285.2C331.949 264.291 361.807 258.286 375.007 271.214Z" fill="#9B9B9B"/>
<path d="M394.912 109.023C387.006 106.975 376.701 94.8247 373.595 76.5289C371.83 65.7916 377.195 55.4781 384.183 52.2286C381.148 56.2551 378.324 62.4009 379.242 70.8777C380.865 84.5819 386.018 98.2861 394.912 109.023Z" fill="#9B9B9B"/>
<path opacity="0.45" d="M320.513 461.236C306.819 471.691 292.207 481.086 276.89 489.28C256.137 500.371 234.044 509.201 210.891 515.558C183.856 522.975 155.409 526.861 126.045 526.861C112.563 526.861 99.2922 526.013 86.3041 524.388C-22.5416 510.967 -114.588 443.011 -161.599 348.706C-179.952 311.973 -191.457 271.284 -194.492 228.264C-195.057 220.635 -195.34 212.935 -195.34 205.236C-195.34 156.706 -184.61 110.719 -165.411 69.4649C-148.258 32.5907 -124.258 -0.46895 -95.1761 -28.0893C-184.822 399.779 144.892 459.046 320.513 461.236Z" fill="url(#paint17_linear_0_1)"/>
<path d="M447.359 205.236C447.359 224.026 445.735 242.463 442.63 260.335C440.936 269.942 438.888 279.408 436.418 288.732C425.265 30.0477 250.208 -117.025 -2.42374 -89.6876C36.8934 -106.853 80.3752 -116.39 125.975 -116.39C264.538 -116.39 382.63 -28.6544 427.736 94.4009C438.959 125.059 445.665 157.836 447.077 192.096C447.288 196.406 447.359 200.785 447.359 205.236Z" fill="url(#paint18_linear_0_1)"/>
</g>
<path d="M383.5 268.5C329 191 204.113 21.5 79.1125 82.5C-45.8876 143.5 66 122.5 70 195C74 267.5 80.5001 284 61.5 328C24.2889 414.173 22.2247 520.5 56.6123 568C91 615.5 309.612 788 381.112 777.5C452.612 767 438.112 643 396.612 577.5C355.112 512 172.61 602.47 283.613 503C322.113 468.5 415.112 540 438.112 540C461.112 540 541.863 483.73 473.112 388C399.5 285.5 438 346 383.5 268.5Z" fill="#E5E5E5" fill-opacity="0.06"/>
<defs>
<filter id="filter0_f_0_1" x="1186" y="46" width="14" height="14" filterUnits="userSpaceOnUse" color-interpolation-filters="sRGB">
<feFlood flood-opacity="0" result="BackgroundImageFix"/>
<feBlend mode="normal" in="SourceGraphic" in2="BackgroundImageFix" result="shape"/>
<feGaussianBlur stdDeviation="2.5" result="effect1_foregroundBlur_0_1"/>
</filter>
<filter id="filter1_f_0_1" x="277" y="78" width="14" height="14" filterUnits="userSpaceOnUse" color-interpolation-filters="sRGB">
<feFlood flood-opacity="0" result="BackgroundImageFix"/>
<feBlend mode="normal" in="SourceGraphic" in2="BackgroundImageFix" result="shape"/>
<feGaussianBlur stdDeviation="2.5" result="effect1_foregroundBlur_0_1"/>
</filter>
<filter id="filter2_f_0_1" x="65" y="52" width="14" height="14" filterUnits="userSpaceOnUse" color-interpolation-filters="sRGB">
<feFlood flood-opacity="0" result="BackgroundImageFix"/>
<feBlend mode="normal" in="SourceGraphic" in2="BackgroundImageFix" result="shape"/>
<feGaussianBlur stdDeviation="2.5" result="effect1_foregroundBlur_0_1"/>
</filter>
<filter id="filter3_f_0_1" x="1009" y="21" width="14" height="14" filterUnits="userSpaceOnUse" color-interpolation-filters="sRGB">
<feFlood flood-opacity="0" result="BackgroundImageFix"/>
<feBlend mode="normal" in="SourceGraphic" in2="BackgroundImageFix" result="shape"/>
<feGaussianBlur stdDeviation="2.5" result="effect1_foregroundBlur_0_1"/>
</filter>
<filter id="filter4_f_0_1" x="876" y="58" width="14" height="14" filterUnits="userSpaceOnUse" color-interpolation-filters="sRGB">
<feFlood flood-opacity="0" result="BackgroundImageFix"/>
<feBlend mode="normal" in="SourceGraphic" in2="BackgroundImageFix" result="shape"/>
<feGaussianBlur stdDeviation="2.5" result="effect1_foregroundBlur_0_1"/>
</filter>
<filter id="filter5_f_0_1" x="1383" y="58" width="14" height="14" filterUnits="userSpaceOnUse" color-interpolation-filters="sRGB">
<feFlood flood-opacity="0" result="BackgroundImageFix"/>
<feBlend mode="normal" in="SourceGraphic" in2="BackgroundImageFix" result="shape"/>
<feGaussianBlur stdDeviation="2.5" result="effect1_foregroundBlur_0_1"/>
</filter>
<filter id="filter6_f_0_1" x="670" y="25" width="14" height="14" filterUnits="userSpaceOnUse" color-interpolation-filters="sRGB">
<feFlood flood-opacity="0" result="BackgroundImageFix"/>
<feBlend mode="normal" in="SourceGraphic" in2="BackgroundImageFix" result="shape"/>
<feGaussianBlur stdDeviation="2.5" result="effect1_foregroundBlur_0_1"/>
</filter>
<filter id="filter7_f_0_1" x="956" y="206" width="14" height="14" filterUnits="userSpaceOnUse" color-interpolation-filters="sRGB">
<feFlood flood-opacity="0" result="BackgroundImageFix"/>
<feBlend mode="normal" in="SourceGraphic" in2="BackgroundImageFix" result="shape"/>
<feGaussianBlur stdDeviation="2.5" result="effect1_foregroundBlur_0_1"/>
</filter>
<filter id="filter8_f_0_1" x="1113" y="401" width="14" height="14" filterUnits="userSpaceOnUse" color-interpolation-filters="sRGB">
<feFlood flood-opacity="0" result="BackgroundImageFix"/>
<feBlend mode="normal" in="SourceGraphic" in2="BackgroundImageFix" result="shape"/>
<feGaussianBlur stdDeviation="2.5" result="effect1_foregroundBlur_0_1"/>
</filter>
<filter id="filter9_f_0_1" x="1292" y="733" width="14" height="14" filterUnits="userSpaceOnUse" color-interpolation-filters="sRGB">
<feFlood flood-opacity="0" result="BackgroundImageFix"/>
<feBlend mode="normal" in="SourceGraphic" in2="BackgroundImageFix" result="shape"/>
<feGaussianBlur stdDeviation="2.5" result="effect1_foregroundBlur_0_1"/>
</filter>
<filter id="filter10_f_0_1" x="1011" y="761" width="14" height="14" filterUnits="userSpaceOnUse" color-interpolation-filters="sRGB">
<feFlood flood-opacity="0" result="BackgroundImageFix"/>
<feBlend mode="normal" in="SourceGraphic" in2="BackgroundImageFix" result="shape"/>
<feGaussianBlur stdDeviation="2.5" result="effect1_foregroundBlur_0_1"/>
</filter>
<filter id="filter11_f_0_1" x="1305" y="445" width="14" height="14" filterUnits="userSpaceOnUse" color-interpolation-filters="sRGB">
<feFlood flood-opacity="0" result="BackgroundImageFix"/>
<feBlend mode="normal" in="SourceGraphic" in2="BackgroundImageFix" result="shape"/>
<feGaussianBlur stdDeviation="2.5" result="effect1_foregroundBlur_0_1"/>
</filter>
<filter id="filter12_f_0_1" x="1387" y="657" width="14" height="14" filterUnits="userSpaceOnUse" color-interpolation-filters="sRGB">
<feFlood flood-opacity="0" result="BackgroundImageFix"/>
<feBlend mode="normal" in="SourceGraphic" in2="BackgroundImageFix" result="shape"/>
<feGaussianBlur stdDeviation="2.5" result="effect1_foregroundBlur_0_1"/>
</filter>
<filter id="filter13_f_0_1" x="1393" y="311" width="14" height="14" filterUnits="userSpaceOnUse" color-interpolation-filters="sRGB">
<feFlood flood-opacity="0" result="BackgroundImageFix"/>
<feBlend mode="normal" in="SourceGraphic" in2="BackgroundImageFix" result="shape"/>
<feGaussianBlur stdDeviation="2.5" result="effect1_foregroundBlur_0_1"/>
</filter>
<filter id="filter14_f_0_1" x="627" y="459" width="14" height="14" filterUnits="userSpaceOnUse" color-interpolation-filters="sRGB">
<feFlood flood-opacity="0" result="BackgroundImageFix"/>
<feBlend mode="normal" in="SourceGraphic" in2="BackgroundImageFix" result="shape"/>
<feGaussianBlur stdDeviation="2.5" result="effect1_foregroundBlur_0_1"/>
</filter>
<filter id="filter15_f_0_1" x="798" y="445" width="14" height="14" filterUnits="userSpaceOnUse" color-interpolation-filters="sRGB">
<feFlood flood-opacity="0" result="BackgroundImageFix"/>
<feBlend mode="normal" in="SourceGraphic" in2="BackgroundImageFix" result="shape"/>
<feGaussianBlur stdDeviation="2.5" result="effect1_foregroundBlur_0_1"/>
</filter>
<filter id="filter16_f_0_1" x="936" y="579" width="14" height="14" filterUnits="userSpaceOnUse" color-interpolation-filters="sRGB">
<feFlood flood-opacity="0" result="BackgroundImageFix"/>
<feBlend mode="normal" in="SourceGraphic" in2="BackgroundImageFix" result="shape"/>
<feGaussianBlur stdDeviation="2.5" result="effect1_foregroundBlur_0_1"/>
</filter>
<filter id="filter17_f_0_1" x="1393" y="500" width="14" height="14" filterUnits="userSpaceOnUse" color-interpolation-filters="sRGB">
<feFlood flood-opacity="0" result="BackgroundImageFix"/>
<feBlend mode="normal" in="SourceGraphic" in2="BackgroundImageFix" result="shape"/>
<feGaussianBlur stdDeviation="2.5" result="effect1_foregroundBlur_0_1"/>
</filter>
<filter id="filter18_f_0_1" x="1171" y="467" width="14" height="14" filterUnits="userSpaceOnUse" color-interpolation-filters="sRGB">
<feFlood flood-opacity="0" result="BackgroundImageFix"/>
<feBlend mode="normal" in="SourceGraphic" in2="BackgroundImageFix" result="shape"/>
<feGaussianBlur stdDeviation="2.5" result="effect1_foregroundBlur_0_1"/>
</filter>
<filter id="filter19_f_0_1" x="348" y="23" width="14" height="14" filterUnits="userSpaceOnUse" color-interpolation-filters="sRGB">
<feFlood flood-opacity="0" result="BackgroundImageFix"/>
<feBlend mode="normal" in="SourceGraphic" in2="BackgroundImageFix" result="shape"/>
<feGaussianBlur stdDeviation="2.5" result="effect1_foregroundBlur_0_1"/>
</filter>
<filter id="filter20_f_0_1" x="36" y="199" width="14" height="14" filterUnits="userSpaceOnUse" color-interpolation-filters="sRGB">
<feFlood flood-opacity="0" result="BackgroundImageFix"/>
<feBlend mode="normal" in="SourceGraphic" in2="BackgroundImageFix" result="shape"/>
<feGaussianBlur stdDeviation="2.5" result="effect1_foregroundBlur_0_1"/>
</filter>
<filter id="filter21_f_0_1" x="880" y="296" width="14" height="14" filterUnits="userSpaceOnUse" color-interpolation-filters="sRGB">
<feFlood flood-opacity="0" result="BackgroundImageFix"/>
<feBlend mode="normal" in="SourceGraphic" in2="BackgroundImageFix" result="shape"/>
<feGaussianBlur stdDeviation="2.5" result="effect1_foregroundBlur_0_1"/>
</filter>
<filter id="filter22_f_0_1" x="501" y="200" width="14" height="14" filterUnits="userSpaceOnUse" color-interpolation-filters="sRGB">
<feFlood flood-opacity="0" result="BackgroundImageFix"/>
<feBlend mode="normal" in="SourceGraphic" in2="BackgroundImageFix" result="shape"/>
<feGaussianBlur stdDeviation="2.5" result="effect1_foregroundBlur_0_1"/>
</filter>
<filter id="filter23_f_0_1" x="567" y="302" width="14" height="14" filterUnits="userSpaceOnUse" color-interpolation-filters="sRGB">
<feFlood flood-opacity="0" result="BackgroundImageFix"/>
<feBlend mode="normal" in="SourceGraphic" in2="BackgroundImageFix" result="shape"/>
<feGaussianBlur stdDeviation="2.5" result="effect1_foregroundBlur_0_1"/>
</filter>
<filter id="filter24_f_0_1" x="787" y="723" width="14" height="14" filterUnits="userSpaceOnUse" color-interpolation-filters="sRGB">
<feFlood flood-opacity="0" result="BackgroundImageFix"/>
<feBlend mode="normal" in="SourceGraphic" in2="BackgroundImageFix" result="shape"/>
<feGaussianBlur stdDeviation="2.5" result="effect1_foregroundBlur_0_1"/>
</filter>
<filter id="filter25_f_0_1" x="516" y="515" width="14" height="14" filterUnits="userSpaceOnUse" color-interpolation-filters="sRGB">
<feFlood flood-opacity="0" result="BackgroundImageFix"/>
<feBlend mode="normal" in="SourceGraphic" in2="BackgroundImageFix" result="shape"/>
<feGaussianBlur stdDeviation="2.5" result="effect1_foregroundBlur_0_1"/>
</filter>
<filter id="filter26_f_0_1" x="557" y="675" width="14" height="14" filterUnits="userSpaceOnUse" color-interpolation-filters="sRGB">
<feFlood flood-opacity="0" result="BackgroundImageFix"/>
<feBlend mode="normal" in="SourceGraphic" in2="BackgroundImageFix" result="shape"/>
<feGaussianBlur stdDeviation="2.5" result="effect1_foregroundBlur_0_1"/>
</filter>
<filter id="filter27_f_0_1" x="282" y="729" width="14" height="14" filterUnits="userSpaceOnUse" color-interpolation-filters="sRGB">
<feFlood flood-opacity="0" result="BackgroundImageFix"/>
<feBlend mode="normal" in="SourceGraphic" in2="BackgroundImageFix" result="shape"/>
<feGaussianBlur stdDeviation="2.5" result="effect1_foregroundBlur_0_1"/>
</filter>
<filter id="filter28_f_0_1" x="36" y="759" width="14" height="14" filterUnits="userSpaceOnUse" color-interpolation-filters="sRGB">
<feFlood flood-opacity="0" result="BackgroundImageFix"/>
<feBlend mode="normal" in="SourceGraphic" in2="BackgroundImageFix" result="shape"/>
<feGaussianBlur stdDeviation="2.5" result="effect1_foregroundBlur_0_1"/>
</filter>
<filter id="filter29_f_0_1" x="318" y="307" width="14" height="14" filterUnits="userSpaceOnUse" color-interpolation-filters="sRGB">
<feFlood flood-opacity="0" result="BackgroundImageFix"/>
<feBlend mode="normal" in="SourceGraphic" in2="BackgroundImageFix" result="shape"/>
<feGaussianBlur stdDeviation="2.5" result="effect1_foregroundBlur_0_1"/>
</filter>
<filter id="filter30_f_0_1" x="94" y="514" width="14" height="14" filterUnits="userSpaceOnUse" color-interpolation-filters="sRGB">
<feFlood flood-opacity="0" result="BackgroundImageFix"/>
<feBlend mode="normal" in="SourceGraphic" in2="BackgroundImageFix" result="shape"/>
<feGaussianBlur stdDeviation="2.5" result="effect1_foregroundBlur_0_1"/>
</filter>
<filter id="filter31_f_0_1" x="148" y="640" width="14" height="14" filterUnits="userSpaceOnUse" color-interpolation-filters="sRGB">
<feFlood flood-opacity="0" result="BackgroundImageFix"/>
<feBlend mode="normal" in="SourceGraphic" in2="BackgroundImageFix" result="shape"/>
<feGaussianBlur stdDeviation="2.5" result="effect1_foregroundBlur_0_1"/>
</filter>
<radialGradient id="paint0_radial_0_1" cx="0" cy="0" r="1" gradientUnits="userSpaceOnUse" gradientTransform="translate(1140.47 650.003) scale(65.9981 65.6176)">
<stop stop-color="#90DD6F"/>
<stop offset="1" stop-color="#B8FFA9" stop-opacity="0"/>
</radialGradient>
<radialGradient id="paint1_radial_0_1" cx="0" cy="0" r="1" gradientUnits="userSpaceOnUse" gradientTransform="translate(1143.13 628.621) scale(67.0302 66.6438)">
<stop stop-color="#00B3DC"/>
<stop offset="1" stop-color="#056DB0"/>
</radialGradient>
<linearGradient id="paint2_linear_0_1" x1="1104.1" y1="565.447" x2="1116.63" y2="723.406" gradientUnits="userSpaceOnUse">
<stop stop-color="#F2F236"/>
<stop offset="1" stop-color="#F2F236" stop-opacity="0"/>
</linearGradient>
<linearGradient id="paint3_linear_0_1" x1="1166.08" y1="560.532" x2="1178.61" y2="718.491" gradientUnits="userSpaceOnUse">
<stop stop-color="#F2F236"/>
<stop offset="1" stop-color="#F2F236" stop-opacity="0"/>
</linearGradient>
<linearGradient id="paint4_linear_0_1" x1="1171" y1="560.142" x2="1183.53" y2="718.101" gradientUnits="userSpaceOnUse">
<stop stop-color="#F2F236"/>
<stop offset="1" stop-color="#F2F236" stop-opacity="0"/>
</linearGradient>
<linearGradient id="paint5_linear_0_1" x1="1132.3" y1="563.211" x2="1144.83" y2="721.17" gradientUnits="userSpaceOnUse">
<stop stop-color="#F2F236"/>
<stop offset="1" stop-color="#F2F236" stop-opacity="0"/>
</linearGradient>
<linearGradient id="paint6_linear_0_1" x1="1153.69" y1="561.515" x2="1166.21" y2="719.474" gradientUnits="userSpaceOnUse">
<stop stop-color="#F2F236"/>
<stop offset="1" stop-color="#F2F236" stop-opacity="0"/>
</linearGradient>
<linearGradient id="paint7_linear_0_1" x1="1122.14" y1="564.017" x2="1134.66" y2="721.975" gradientUnits="userSpaceOnUse">
<stop stop-color="#F2F236"/>
<stop offset="1" stop-color="#F2F236" stop-opacity="0"/>
</linearGradient>
<linearGradient id="paint8_linear_0_1" x1="1132" y1="721.204" x2="1140.19" y2="646.096" gradientUnits="userSpaceOnUse">
<stop stop-color="#00ACD8"/>
<stop offset="1" stop-color="#0983BD"/>
</linearGradient>
<linearGradient id="paint9_linear_0_1" x1="1137.57" y1="717.975" x2="1146.72" y2="639.474" gradientUnits="userSpaceOnUse">
<stop stop-color="#056EB1"/>
<stop offset="1" stop-color="#00A9D7" stop-opacity="0.3"/>
</linearGradient>
<linearGradient id="paint10_linear_0_1" x1="1180.5" y1="564.95" x2="1146.06" y2="633.268" gradientUnits="userSpaceOnUse">
<stop stop-color="#E2FFB5"/>
<stop offset="1" stop-color="#FFFFB3" stop-opacity="0"/>
</linearGradient>
<radialGradient id="paint11_radial_0_1" cx="0" cy="0" r="1" gradientUnits="userSpaceOnUse" gradientTransform="translate(13.0818 13.0811) rotate(-156.802) scale(6.22669 6.22647)">
<stop stop-color="white"/>
<stop offset="1" stop-color="#DDDDDD"/>
</radialGradient>
<radialGradient id="paint12_radial_0_1" cx="0" cy="0" r="1" gradientUnits="userSpaceOnUse" gradientTransform="translate(13.0818 13.0811) rotate(-156.802) scale(6.22669 6.22647)">
<stop stop-color="white"/>
<stop offset="1" stop-color="#DDDDDD"/>
</radialGradient>
<linearGradient id="paint13_linear_0_1" x1="4.08805" y1="0" x2="4.08805" y2="103.014" gradientUnits="userSpaceOnUse">
<stop stop-color="#3BB094"/>
<stop offset="1" stop-color="#232030"/>
</linearGradient>
<linearGradient id="paint14_linear_0_1" x1="4.08806" y1="0" x2="4.08806" y2="103.014" gradientUnits="userSpaceOnUse">
<stop stop-color="#3BB094"/>
<stop offset="1" stop-color="#232030"/>
</linearGradient>
<radialGradient id="paint15_radial_0_1" cx="0" cy="0" r="1" gradientUnits="userSpaceOnUse" gradientTransform="translate(126.007 205.977) scale(384.93 385.218)">
<stop stop-color="#F8F8F8"/>
<stop offset="1" stop-color="white" stop-opacity="0"/>
</radialGradient>
<radialGradient id="paint16_radial_0_1" cx="0" cy="0" r="1" gradientUnits="userSpaceOnUse" gradientTransform="translate(111.817 34.9621) scale(490.729 491.096)">
<stop stop-color="#E8E8E8"/>
<stop offset="1" stop-color="#DFDFDF"/>
</radialGradient>
<linearGradient id="paint17_linear_0_1" x1="63.8968" y1="670.403" x2="60.7567" y2="-126.644" gradientUnits="userSpaceOnUse">
<stop/>
<stop offset="1" stop-opacity="0.2"/>
</linearGradient>
<linearGradient id="paint18_linear_0_1" x1="411.847" y1="-116.532" x2="216.166" y2="100.117" gradientUnits="userSpaceOnUse">
<stop stop-color="#B7B7B7"/>
<stop offset="0.557292" stop-color="#AEAEAE" stop-opacity="0.2"/>
</linearGradient>
<clipPath id="clip0_0_1">
<rect width="153" height="152" fill="white" transform="translate(1063.98 574)"/>
</clipPath>
<clipPath id="clip1_0_1">
<rect width="832" height="832" fill="white" transform="translate(-290 -210)"/>
</clipPath>
</defs>
</svg>
